<?xml version="1.0" encoding="UTF-8"?>
<svg id="Layer_2" data-name="Layer 2" xmlns="http://www.w3.org/2000/svg" viewBox="0 0 421.38 355.64">
  <defs>
    <style>
      .cls-1 {
        opacity: .2;
      }

      .cls-1, .cls-2, .cls-3, .cls-4, .cls-5, .cls-6, .cls-7, .cls-8, .cls-9, .cls-10, .cls-11, .cls-12, .cls-13, .cls-14 {
        stroke-width: 0px;
      }

      .cls-1, .cls-4, .cls-13 {
        fill: #2c2a40;
      }

      .cls-2 {
        fill: none;
      }

      .cls-3 {
        fill: #f9b587;
      }

      .cls-5 {
        fill: #b8e019;
      }

      .cls-6 {
        fill: #f39568;
      }

      .cls-7 {
        fill: #6c8c31;
      }

      .cls-8 {
        fill: #a5c723;
      }

      .cls-9 {
        fill: #fff;
      }

      .cls-10 {
        fill: #00497b;
      }

      .cls-11 {
        fill: #b0b1ca;
      }

      .cls-12 {
        fill: #007bb0;
      }

      .cls-13 {
        opacity: .1;
      }

      .cls-14 {
        fill: #5b5b6c;
      }
    </style>
  </defs>
  <g id="OBJECTS">
    <path className"cls-13" d="m375.04,122.12c-8.96-34.79-41.66-32.63-72.63-26.17-16.66,3.47-40,8.28-64.35,1.18-52.42-15.27-112.68-19.09-142.38,0-29.7,19.09-47.55,42.09-38.99,74.22,8.56,32.13,30.32,61.03,11.82,78.22s-18.19,82.33,57.89,87.4c76.08,5.07,68.54-67.94,118.79-64.55,50.25,3.39,153.39,52.82,157.75,16.98,4.36-35.83-51.61-61.4-31.54-120.9,3.98-11.81,7.75-30.49,3.66-46.39Z"/>
    <g>
      <path className"cls-13" d="m200.09,65.18s1.94-12.48,7.41-11.99c1.51.13,2.54,1.67,3.22,3.32.42,1.02,1.87.94,2.17-.11,1.45-5.07,4.41-12.81,9-12.81s4.9,8.85,4.56,14.25c-.05.81,1,1.17,1.46.5,1.25-1.84,3.08-3.61,5.3-3.1,4.33,1,3.16,9.95,3.16,9.95h-36.28Z"/>
      <path className"cls-13" d="m0,182.53s1.94-12.48,7.41-11.99c1.51.13,2.54,1.67,3.22,3.32.42,1.02,1.87.94,2.17-.11,1.45-5.07,4.41-12.81,9-12.81s4.9,8.85,4.56,14.25c-.05.81,1,1.17,1.46.5,1.25-1.84,3.08-3.61,5.3-3.1,4.33,1,3.16,9.95,3.16,9.95H0Z"/>
      <path className"cls-13" d="m384.96,132.67s1.94-12.48,7.41-11.99c1.51.13,2.54,1.67,3.22,3.32.42,1.02,1.87.94,2.17-.11,1.45-5.07,4.41-12.81,9-12.81s4.9,8.85,4.56,14.25c-.05.81,1,1.17,1.46.5,1.25-1.84,3.08-3.61,5.3-3.1,4.33,1,3.16,9.95,3.16,9.95h-36.28Z"/>
    </g>
    <g>
      <g>
        <g>
          <path className"cls-3" d="m269.39,165s-5.71,4.96-13.94,8.09c0,0-4.72,2.95-10.76,6.39,0,0,0,0,0,0-7.11,4.05-12.61,6.74-17.85,8.16-4.42,1.2-8.34,2.7-11.3,3.98-.36.16-.71.31-1.03.46h0c-2.93,1.32-4.69,2.3-4.69,2.3l-3.68-8.66s6.68-6.64,10.63-9.9c4.89-4.05,13.75-12.76,24.14-16.51h0c.83-.3,1.62-.54,2.38-.69,0,0,8.35-5.85,14.46-9.04,2.03-1.06,3.8-1.82,4.95-1.98,0,0,9.78,8.99,6.7,17.41Z"/>
          <path className"cls-6" d="m246.41,163.54s-3.48-3.86-5.5-4.24h0c.83-.3,1.62-.54,2.38-.69,0,0,2.82,2.84,3.13,4.93Z"/>
          <path className"cls-6" d="m269.39,165s-5.71,4.96-13.94,8.09c0,0-4.72,2.95-10.76,6.39,4.2-2.98,10.84-9.35,15.94-13.71,3.48-2.98,1.56-6.78.14-10.34-.59-1.48-2.12-4.06-2.84-5.74-.03-.07-.13-.08-.2-.12,2.03-1.06,3.8-1.82,4.95-1.98,0,0,9.78,8.99,6.7,17.41Z"/>
        </g>
        <path className"cls-3" d="m214.15,188.79l1.11,10.42c.12,1.1-.3,2.2-1.12,2.95l-6.08,5.56c-.72.66-1.85.61-2.51-.12h0c-.55-.61-.62-1.52-.15-2.19l4.52-6.61-.78-2-2.64,4.02-2.12,3.95-1.08,6.15c-.16.89-1.03,1.48-1.91,1.28h0c-.77-.17-1.3-.89-1.24-1.68l.6-7.38.89-5.37-2.18,5.53-2.39,9.06c-.16.6-.66,1.04-1.28,1.12h0c-.95.12-1.77-.65-1.72-1.6l.47-7.96,1.63-5.72-4.76,7.96-2.58,5.62c-.29.62-.98.94-1.64.74h0c-.73-.22-1.14-.98-.92-1.71l2-6.61,3.37-6.47-3.28,5.15-.88,2.02c-.18.42-.68.61-1.1.43h0c-.37-.16-.57-.56-.48-.95l.52-2.31,2.28-4.76,17.51-11.61s2.93-.99,7.92,3.1Z"/>
        <path className"cls-6" d="m215.34,191.71c-.36.16-.51.22-.84.37h0s-.27-1.38-2.41-3.15c.11.03,1.71.53,3.25,2.77Z"/>
      </g>
      <path className"cls-4" d="m376.46,170.98c-.36.71-1.14,1.18-1.98,1.5.69,10.62.44,19.73-1.15,23.85-4.92,12.66-46.79,18.85-56.86,9.66-10.07-9.19-15.55-69.89-1.98-79.47,10.13-7.15,31.38-8.32,41.51-8.45,4.24-.05,8.09,2.47,9.68,6.4,2.54,6.29,4.81,16.26,6.46,26.89.6.02,1.25.11,1.86.33,2.1.75,3.45,17.36,2.47,19.3Z"/>
      <g>
        <path className"cls-11" d="m299.61,296.27c.36,1.48,1.04,2.97,2.13,4.42,0,0-4.43,1.79-8.55,3.47-3.13,1.28-8.26,2.04-11.59,3.31-.83.32-1.54.67-2.09,1.06-.14.1-.27.21-.39.31-1.84,1.71-11.47,5.74-14.51,6.47-.31.07-.55.11-.7.11-.91,0-2.18-.39-2.96-1.64h0c-.69-1.12-.99-2.92-.25-5.73.71-2.73,3.02-6.02,5.3-8.78,2.78-3.37,6.15-6.2,9.92-8.4,3.54-2.06,8-4.75,8.87-5.71,2.78-3.06,5.26-6.58,9.21-8.14.98-.39,2.27-.5,3.64-.46,4.18.14,9.23,1.76,9.23,1.76,0,0-9.5,8.91-7.28,17.95Z"/>
        <path className"cls-4" d="m297.66,276.57c-1.91,1.38-4.95,3.8-6.2,6.01-1.89,3.33-9.29,6.78-12.49,8.88s-15.56,11.76-16.78,17.06c-1.05,4.61,1.06,6.36,2.43,6.8-.31.07-.55.11-.7.11-1.73,0-4.77-1.42-3.21-7.37.72-2.73,3.02-6.02,5.3-8.78,2.78-3.37,6.14-6.2,9.92-8.4,3.54-2.06,8-4.76,8.87-5.71,2.78-3.06,5.26-6.58,9.21-8.14.98-.39,2.26-.5,3.64-.46Z"/>
        <path className"cls-1" d="m301.75,300.69s-4.43,1.79-8.55,3.47c-3.13,1.28-8.26,2.04-11.59,3.31-.83.32-1.54.67-2.09,1.06-.14.1-.27.21-.39.31-1.84,1.71-11.47,5.74-14.51,6.47-.31.07-.55.11-.7.11-.91,0-2.18-.39-2.96-1.64h0s6.29-1.39,9.56-3.49c2.11-1.35,4.99-3.54,7.76-5.02-.62-1.21-1.55-2.74-2.93-4.59.09.07,2.29,1.66,4.25,3.94,1.06-.47,2.07-.79,3-.88,3.23-.29,13.39-3.67,17.01-7.49.36,1.48,1.04,2.97,2.13,4.42Z"/>
      </g>
      <g>
        <path className"cls-11" d="m278.03,267.47c-.09,4.94.95,9,.77,10.7-.33,3.13-5.59,9.37-5.59,9.37-.4,3.57-3.24,8.62-7.02,11.3h0s-.04.03-.05.04c-.04.03-.08.06-.12.08-2.21,1.51-4.72,2.21-7.25,1.34-.28-.1-.56-.21-.84-.34-4.84-2.33-6.35-19.05,0-25.74,6.13-6.46,8.72-19.74,14.8-21.22,6.08-1.48,9.21,1.15,9.21,1.15-.16.24-.31.48-.46.72-2.61,4.26-3.37,8.7-3.44,12.59Z"/>
        <path className"cls-4" d="m281.93,254.16c-.16.24-.31.48-.46.72-.58-.21-6.35-2.24-9.9.02-3.74,2.38-5.84,11.43-7.81,13.9s-8.14,11.51-8.3,15.05c-.17,3.54-.99,12.25,2.38,14.8,3.18,2.41,7.04,1.04,8.18.32-2.45,1.68-5.28,2.35-8.1.99-4.84-2.33-6.35-19.05,0-25.74,6.13-6.46,8.72-19.74,14.8-21.22,6.08-1.48,9.21,1.15,9.21,1.15Z"/>
        <path className"cls-1" d="m278.8,278.17c-.3,2.88-4.8,8.42-5.5,9.26l-.06.07s-.03.04-.03.04c-.4,3.57-3.24,8.62-7.02,11.3h0s-.04.03-.05.04c-.04.03-.08.06-.12.08-2.21,1.51-4.72,2.21-7.25,1.34.4-.2.89-.37,1.52-.5,4.31-.88,8.02-6.86,8.84-10.13.24-.97,1.01-2.2,1.97-3.5-1.47-.85-3.43-1.78-4.95-1.8,0,0,1.98-.72,5.63.92,2.22-2.82,5.03-5.77,5.35-7.13.5-2.13.92-10.7.92-10.7-.09,4.94.95,9,.77,10.7Z"/>
      </g>
      <g>
        <path className"cls-3" d="m404.29,96.07l-12.33,6.87-12.46,6.94s-5.02-11.35-.54-18.38c0,0,1.05-.61,2.58-1.42,1.12-.59,2.5-1.28,3.92-1.91.81-.36,1.63-.7,2.43-.99,0,0,1.23-4.1,3.33-8.71,1.11-2.44,1.25-4.11,1.14-5.14-.1-.91-.4-1.32-.4-1.32,0,0,6.41-3.23,10.11-6.37,0,0,7.89,18.09,2.22,30.42Z"/>
        <path className"cls-6" d="m394.17,92.17s-5.29,1.32-8.72-3.99c.81-.36,1.63-.7,2.43-.99,0,0,2.42,4.32,6.29,4.98Z"/>
        <path className"cls-6" d="m391.95,102.95l-12.46,6.94s-5.02-11.35-.54-18.38c0,0,1.05-.61,2.58-1.42,0,0,.14,9.65,1.46,12.03,1.31,2.38,5.76,1.57,8.96.83Z"/>
        <g>
          <path className"cls-3" d="m402.07,65.65c-1.48,1.65-7.97,6.29-8.93,6.75-.33.16-.79-.04-1.25-.37-.44.02-3.35.14-4.94-.58-.88-.4-.86-1.64-.64-2.95-2.1-.51-6.2-3.72-6.15-6.78.06-3.33,3.64-3.58,3.64-3.58.06-3.82,3.7-3.21,3.7-3.21.18-1.67,3.21-2.41,3.21-2.41.31-1.42,2.28-1.67,3.45-1.11s8.14,8.63,8.45,10.11c.31,1.48-.55,4.12-.55,4.12Z"/>
          <path className"cls-6" d="m391.72,66.65c.51,1.91-1.1,2.16-1.1,2.16.33-.25.3-1.07.21-1.77,0,0-.01-.48-.19-1.05t0,0c-.19-.62-.59-1.36-1.39-1.72-1.44-.64-2.1-.2-2.1-.2l-2.87-3.89c1.48.89,3.45,3.02,3.45,3.02,2.55-.1,3.5,1.77,3.83,2.8.5-.04,1.06-.26,1.26-.95.4-1.39-.52-2.73-.52-2.73l-3.98-5.29s5.43,5.06,5.55,7.03c.16,2.62-2.15,2.59-2.15,2.59Z"/>
          <path className"cls-6" d="m392.29,55.37s3.55,4.24,4.02,5.4c.51,1.26-.29,2.53-1.21,2.78s-1.45-.23-1.45-.23v1.34s3.59.55,3.55-2.85c-.02-1.7-4.91-6.43-4.91-6.43Z"/>
          <path className"cls-6" d="m396.97,61.01s.87.83,1.92.49c1.05-.34,1.26-1.05,1.02-1.7,0,0,.64.63.09,1.54-.71,1.19-2.47.98-3.03.83v-1.17Z"/>
        </g>
        <path className"cls-6" d="m396.31,71.45s-1.09,2.11-3.96,1.89c-.1-.91-.4-1.32-.4-1.32,0,0,2.34.17,4.36-.57Z"/>
      </g>
      <path className"cls-7" d="m355.27,232.5s-3.62-7.95-2.96-12.46c.66-4.51,6.77,2.58,7.57,4.5.8,1.91-.34,7.16-4.61,7.96Z"/>
      <path className"cls-4" d="m309.26,278.89c-3.59,1.55-7.38,2.46-10.49,2.58,3.29-2.41,7.17-3.3,7.17-3.3,1.04.13,2.17.38,3.32.72Z"/>
      <g>
        <path className"cls-2" d="m323.37,254.09c-.7,3.05.15,6.9-2.14,13.88-1.56,4.77-6.54,8.58-11.97,10.92,4.86,1.42,10.07,2.58,10.07,2.58,8.49-.3,24.51,3.19,24.51,3.19-15.05-14.06-20.48-30.58-20.48-30.58Z"/>
        <path className"cls-4" d="m379.95,296.76c-.66-14.31-24.21-50.74-27.88-78.37l-14.76-5.32c-1.96-.56-1.1-.24-3.41-.93,0,0-34.87-18.01-50.49,5.67,0,0-1.97,8.39,2.79,17.27,1.98,3.69,3.45,15.13,1.97,17.43,0,0-1.97.16-6.25,1.64-2.62.91-6.66,2.56-9.4,3.7-3.45,1.44-6.09,4.37-7.01,7.99-.47,1.87-.53,4.04.29,6.4,2.63,7.56,9.21,8.39,13.48,7.73,0,0,9.21,0,16.45,1.31.9.16,1.92.22,3.03.18-2,1.47-3.78,3.5-4.34,6.24-1.48,7.24,5.52,12.5,5.52,12.5,0,0,.73,1.48,6.32,1.15,5.59-.33,5.58-1.83,10.2.05,4.62,1.87,37,15.25,47.69,15.74,10.69.49,16.45-6.09,15.79-20.39Zm-60.61-15.28s-5.21-1.16-10.07-2.58c5.43-2.34,10.41-6.15,11.97-10.92,2.28-6.98,1.44-10.83,2.14-13.88,0,0,5.43,16.52,20.48,30.58,0,0-16.02-3.49-24.51-3.19Z"/>
        <g>
          <path className"cls-14" d="m283.18,257.56c-.5.1-1.01.21-1.52.32l.16.74c.51-.11,1.02-.21,1.52-.32.51-.11,1.02-.21,1.51-.32l-.16-.74c-.49.11-1,.21-1.51.32Z"/>
          <path className"cls-14" d="m267.76,262.84l.37.66c.89-.5,1.81-.99,2.72-1.47l-.35-.67c-.92.48-1.84.98-2.74,1.48Z"/>
          <path className"cls-14" d="m276.86,259l.19.73c.88-.23,1.87-.47,3-.72l-.16-.74c-1.15.26-2.14.49-3.03.73Z"/>
          <path className"cls-14" d="m292.98,246.78l.75-.04c-.06-1.03-.16-2.08-.3-3.11l-.75.1c.13,1.02.23,2.05.29,3.06Z"/>
          <path className"cls-14" d="m286.78,215.56l-.75-.05c-.07,1.05-.11,2.1-.13,3.12h.75c.01-.99.06-2.03.13-3.07Z"/>
          <path className"cls-14" d="m292.42,241.95l.74-.13c-.19-1.06-.42-2.09-.68-3.06l-.73.2c.26.94.48,1.95.67,2.99Z"/>
          <path className"cls-14" d="m272.15,260.56l.3.69c.83-.36,1.77-.7,2.88-1.04l-.22-.72c-1.13.34-2.1.69-2.96,1.07Z"/>
          <path className"cls-14" d="m292.12,254.71c-.18.25-.54.5-1.05.75l.33.68c.63-.31,1.06-.63,1.32-.99.26-.36.48-.9.65-1.63l-.73-.17c-.18.78-.39,1.16-.53,1.35Z"/>
          <path className"cls-14" d="m291.94,237c-.37-1.07-.79-2.05-1.24-2.9l-.67.35c.44.82.84,1.76,1.19,2.79l.71-.25Z"/>
          <path className"cls-14" d="m286.66,220.43h-.75c.02,1.1.08,2.15.17,3.14l.75-.07c-.09-.97-.14-2-.16-3.07Z"/>
          <path className"cls-14" d="m293.8,248.56h-.75c0,.12,0,.23,0,.34,0,.99-.04,1.9-.13,2.72l.75.08c.09-.84.13-1.78.13-2.79,0-.11,0-.23,0-.35Z"/>
          <path className"cls-14" d="m287.65,228.26c-.25-.9-.46-1.91-.62-2.99l-.75.11c.16,1.11.38,2.15.64,3.08l.73-.2Z"/>
          <path className"cls-14" d="m288.22,229.93l-.7.29c.4.98.87,1.82,1.41,2.52.06.08.12.16.18.24l.61-.45c-.06-.09-.13-.17-.19-.25-.5-.64-.94-1.43-1.31-2.34Z"/>
          <path className"cls-14" d="m286.46,256.86l.17.74c1.27-.29,2.23-.54,3.03-.79l-.23-.72c-.78.24-1.73.49-2.97.77Z"/>
        </g>
        <g>
          <path className"cls-14" d="m325.48,252.54c-.53-.81-.83-1.26-.83-1.26l.63-.41s.3.46.82,1.26l-.63.41Z"/>
          <g>
            <path className"cls-14" d="m311.14,282.36c.8.19,1.75.43,2.91.74l.19-.73c-1.16-.31-2.12-.55-2.93-.75l-.18.73Z"/>
            <path className"cls-14" d="m306.57,280.91l-.1.75c.76.1,1.44.16,2.03.19.21.01.53.06.94.13l.14-.74c-.45-.08-.79-.13-1.03-.15-.57-.03-1.23-.09-1.98-.19Z"/>
            <path className"cls-14" d="m315.74,283.56c.92.25,1.89.52,2.9.8l.2-.73c-1.01-.28-1.98-.55-2.9-.8l-.2.73Z"/>
            <rect className"cls-14" x="321.5" y="283.37" width=".76" height="3.01" transform="translate(-39.35 517.83) rotate(-74.33)"/>
            <path className"cls-14" d="m324.91,286.11c.96.27,1.93.54,2.9.81l.2-.73c-.96-.27-1.93-.54-2.9-.81l-.2.73Z"/>
            <path className"cls-14" d="m336.81,267.86c-.58-.82-1.16-1.64-1.73-2.46l-.62.43c.57.82,1.15,1.64,1.73,2.46l.62-.44Z"/>
            <path className"cls-14" d="m351.39,286.72c-.21-.8-.73-1.69-1.59-2.71l-.58.49c.78.92,1.26,1.73,1.43,2.42l.73-.19Z"/>
            <path className"cls-14" d="m339.58,271.72c-.58-.8-1.17-1.61-1.76-2.43l-.61.44c.59.82,1.18,1.64,1.76,2.44l.61-.45Z"/>
            <path className"cls-14" d="m301.81,280.6l-.05.26c1.05.21,2.05.39,2.97.54l.12-.75c-.44-.07-.9-.15-1.38-.24-.55.07-1.1.13-1.66.18Z"/>
            <path className"cls-14" d="m326.44,254c.48.72,1.04,1.57,1.67,2.51l.63-.42c-.63-.94-1.19-1.78-1.66-2.5l-.63.42Z"/>
            <path className"cls-14" d="m344.59,289.96c-.27,0-.61-.01-1.03-.06l-.08.75c.38.04.71.06.98.06.06,0,.11,0,.16,0,.7-.02,1.35-.07,1.94-.13l-.08-.75c-.57.06-1.2.11-1.88.13Z"/>
            <path className"cls-14" d="m348.21,282.34c-.49-.47-1.06-1.07-1.7-1.78l-.56.5c.65.73,1.24,1.35,1.74,1.83.12.12.25.24.36.35l.53-.54c-.12-.12-.24-.24-.37-.36Z"/>
            <path className"cls-14" d="m345.38,279.24c-.58-.7-1.22-1.48-1.88-2.33l-.59.47c.67.86,1.31,1.65,1.9,2.35l.58-.48Z"/>
            <path className"cls-14" d="m340.02,273.58c.63.85,1.24,1.66,1.81,2.41l.6-.46c-.57-.75-1.18-1.55-1.8-2.4l-.61.45Z"/>
            <path className"cls-14" d="m348.15,289.54l.18.73c1.4-.34,2.32-.85,2.8-1.58l-.63-.42c-.37.55-1.15.97-2.34,1.26Z"/>
            <path className"cls-14" d="m329.51,287.39c.98.27,1.96.53,2.91.78l.19-.73c-.95-.25-1.92-.52-2.9-.78l-.2.73Z"/>
            <path className"cls-14" d="m338.75,289.76c1.13.26,2.13.47,2.96.62l.14-.74c-.82-.15-1.81-.36-2.93-.61l-.17.74Z"/>
            <path className"cls-14" d="m331.76,261.91c.55.81,1.12,1.64,1.7,2.48l.62-.43c-.58-.84-1.15-1.67-1.7-2.47l-.62.43Z"/>
            <path className"cls-14" d="m331.39,260.04c-.59-.87-1.15-1.7-1.68-2.49l-.63.42c.53.79,1.09,1.62,1.68,2.49l.62-.42Z"/>
            <path className"cls-14" d="m334.11,288.62c1.05.27,2.03.52,2.92.74l.18-.73c-.89-.22-1.87-.46-2.91-.74l-.19.73Z"/>
          </g>
        </g>
      </g>
      <path className"cls-4" d="m309.26,278.89c-3.59,1.55-7.38,2.46-10.49,2.58,3.29-2.41,7.17-3.3,7.17-3.3,1.04.13,2.17.38,3.32.72Z"/>
      <g>
        <path className"cls-8" d="m380.74,111.74c-.05,4.76-.3,8.22-.3,8.22-.88.32-1.83.74-2.81,1.24-6.51,3.3-14.59,10.18-16.56,17.18-.78,2.79-1.14,8.55-1.29,15.06-.12,5.26-.08,11.01-.01,16.09,0,.27,0,.55.01.82.1,6.43.26,11.62.26,13.1,0,4.11-.82,16.28-.99,21.54-.17,5.26,1.31,10.85,1.97,19.74.66,8.88-5.76,7.78-5.76,7.78,6.25-2.63,3.01-10.11-.98-11.72-.59-.24-1.28-.5-2.05-.77h0c-9.55-3.38-31.69-9.09-42.97-10.74-16.81-2.47-25.85,8.55-25.85,8.55,0,0,3.29-18.26,6.09-21.87,2.79-3.62,4.44-15.46,5.59-20.39.16-.66.24-1.49.27-2.45.16-4.42-.81-11.36-1.37-14.95-.22-1.43-.38-2.33-.38-2.33-1.7,2.8-12.74,8.55-18.39,11.37-2,1-3.32,1.62-3.32,1.62l-4.68-7.11-9.29-14.11s.62-.56,2.54-2.08c1.37-1.08,3.4-2.64,6.34-4.83,7.07-5.26,15.46-14.8,18.58-16.28,3.13-1.48,3.62-1.31,7.73-5.26,2.88-2.77,13.35-6.12,19.34-7.88,2.55-.75,4.29-1.21,4.29-1.21,8.01,2.43,13.94-.95,13.94-.95,0,0,2.19-1.44,5.16-3.23,4.81-2.91,11.66-6.77,14.5-6.99,3.61-.28,19.12-4.64,25.67-6.52,1.82-.52,2.94-.85,2.94-.85,1.57,5.83,1.85,14.1,1.78,20.23Z"/>
        <g>
          <path className"cls-4" d="m323.24,117.58c-7.09.36-10.1-4.9-10.79-6.32,2.55-.75,4.29-1.21,4.29-1.21,8.01,2.43,13.94-.95,13.94-.95,0,0,2.19-1.44,5.16-3.23.86,7.24-4.61,11.3-12.6,11.7Z"/>
          <path className"cls-4" d="m275.22,167.18c-2,1-3.32,1.62-3.32,1.62l-13.98-21.22s.62-.56,2.54-2.08l14.76,21.67Z"/>
          <path className"cls-4" d="m380.44,119.96c-.88.32-1.83.74-2.81,1.24,1.23-11.94-.68-23.96-1.62-28.84,1.82-.52,2.94-.85,2.94-.85,2.8,10.36,1.48,28.45,1.48,28.45Z"/>
        </g>
        <path className"cls-5" d="m359.78,169.53c-11.53-5.04-39.62-14.09-64.42,3.57.16-4.42-.81-11.36-1.37-14.95,3.76-2.38,21.82-13.17,39.09-12.64,11.89.37,21.25,4.65,26.71,7.92-.12,5.26-.08,11.01-.01,16.09Z"/>
      </g>
      <g>
        <path className"cls-4" d="m304.17,70.47s-4.56-1.03-5.13,4.27c-.48,4.54,5.28,6.24,5.28,6.24,0,0,1.85-7.71-.16-10.51Z"/>
        <path className"cls-4" d="m306.42,78.17s-4.56-1.03-5.13,4.27c-.48,4.54,5.28,6.24,5.28,6.24,0,0,1.85-7.71-.16-10.51Z"/>
        <path className"cls-4" d="m303.41,71.54s-7.26-2.79-4.78-10.8c2.48-8.01,11.94-4.82,11.94-4.82,0,0,.35-5.58,6.59-5.87,6.24-.29,8.51,4.7,8.51,4.7,0,0,4.22-4.2,9.36-2.94,5.14,1.26,6.88,7.49,5.29,10.45,0,0,3.27-.58,5.75,3.22,2.48,3.8,3.12,9.44.04,11.54,0,0,3.66,4.01,1.66,9.45-2,5.44-7.37,5.31-7.37,5.31,0,0,1.03,7.09-5.85,8.82-6.89,1.73-6.24-4.4-6.24-4.4,0,0-12.08-27.84-24.9-24.68Z"/>
        <g>
          <path className"cls-3" d="m332.14,103.44l1,4.88c.25,1.24-.23,2.52-1.26,3.27-8.84,6.42-15.57,2.01-16.99-.17,1.07-1,20.04-18.96,20.35-29.05,0,0,2.18,12.56-3.1,21.08Z"/>
          <path className"cls-3" d="m303.91,85.09c-.37,1.45-.49,2.94-.37,4.41.1,1.27.39,2.53.85,3.74l3.1,8.01c1.15,2.98,4.07,4.89,7.26,4.75,3.66-.16,8.54-.99,12.78-3.81,7.99-5.32,8.02-17.54,8.02-17.54,0,0-.66-12.4-10.95-17.09-10.29-4.7-20.76.8-20.76.8l-1.2,8.67c-.07.48-.11.97-.12,1.45-.05,1.63.21,3.26.75,4.81l.63,1.8Z"/>
          <path className"cls-4" d="m312.29,75.94s5.79-5.65,9.77-.56l-.72,1.3s-4.02-3.5-8.68.87l-.37-1.62Z"/>
          <path className"cls-6" d="m303.91,85.09c-.37,1.45-.49,2.94-.37,4.41,1.24-.88,3.74-1.62,8.76-.93,0,0-2.7-2.19-5.39-2.24-.72-.01-1.23-.72-1-1.41l1.5-4.6s-.54-.92-1.69-1.26c-.7-.21-2.08-.46-3.2-.57-.05,1.63.21,3.26.75,4.81l.63,1.8Z"/>
          <path className"cls-4" d="m302.78,77.1c1.95.13,3.52.69,3.52.69l.18,1.5c-1.39-.47-2.62-.63-3.69-.59-.53.02-.96-.38-.94-.85,0,0,0-.01,0-.02.02-.43.44-.76.92-.73Z"/>
          <path className"cls-9" d="m306.21,92.26l13.74-1.3s-1.58,7.42-8.89,7.23c-5.73-.15-4.86-5.93-4.86-5.93Z"/>
          <path className"cls-6" d="m315.57,105.75s8.52-1.06,13.1-12.93c0,0,2.12,4.37-.37,10.66-2.49,6.29-13.41,7.93-13.41,7.93l.68-5.66Z"/>
          <path className"cls-3" d="m332.01,82.63s2.59-4.94,6.37-2.72c3.78,2.22,1.67,13.48-3.81,11.37-5.48-2.11-2.56-8.66-2.56-8.66Z"/>
        </g>
        <path className"cls-4" d="m313.99,80.29s.8-2.45,3-2.46c3.2-.02,3.82,2.69,3.82,2.69,0,0-3.11-4.28-6.82-.23Z"/>
        <path className"cls-4" d="m306.79,82s-2.21-2.63-3.52.56c0,0,1.48-2.04,3.52-.56Z"/>
        <path className"cls-4" d="m303.41,71.54s3.73.94,6.88-1.23,2.38-4.1,2.38-4.1c0,0,1.28,3.2,5.54,2.87,4.26-.33,4.85-1.51,4.85-1.51,0,0-.18,4.77,3.3,5.49,3.48.73,5.59-2.1,5.59-2.1,0,0-15.47-13.63-20.8-9.99-5.32,3.64-9.9,5.55-7.75,10.57Z"/>
        <path className"cls-4" d="m330.12,71.62s-2.1,4.08,1.47,6.44c0,0-.12,3.51-1.27,6.4l2.72-.04s2-3.49,1.8-6.48c-.19-2.99-.22-7.53-4.72-6.33Z"/>
      </g>
      <path className"cls-6" d="m402.07,65.65s-.62,1.6-1.52,2.21c0,0,1.52-.07,2.03-.94l-.51-1.28Z"/>
      <path className"cls-8" d="m266.14,298.89s.03-.02.05-.04h0s-.03.03-.05.04Z"/>
      <path className"cls-1" d="m352.23,220c-9.55-3.38-31.69-9.08-42.97-10.74-16.81-2.47-25.85,8.55-25.85,8.55,0,0,3.29-18.26,6.09-21.87,2.79-3.62,4.44-15.46,5.59-20.39.16-.66.24-1.49.27-2.45.16-4.42-.81-11.36-1.37-14.95-.22-1.43-.38-2.33-.38-2.33-1.7,2.8-12.74,8.55-18.39,11.37-2,1-3.32,1.62-3.32,1.62l-4.68-7.11-.64-3.09s12.28-6.66,29.18-15.79c0,0,7.65,9.62,7.53,20.72-.21,19.75-3.05,33.22,9.18,37.83,11.85,4.46,38.15,17.8,39.78,18.64Z"/>
      <path className"cls-1" d="m380.74,111.74c-.05,4.76-.3,8.22-.3,8.22-.88.32-1.83.74-2.81,1.24-6.51,3.3-14.59,10.18-16.56,17.18-.78,2.79-1.14,8.55-1.29,15.06-.12,5.26-.08,11.01-.01,16.09,0,.27,0,.55.01.82,0,0-4.35-29.66-1.88-38.38,2.44-8.62,22.39-19.98,22.83-20.23Z"/>
      <path className"cls-4" d="m299.01,118.81c-3.6,21.38-2.94,46.71-2.94,46.71,1.32,6.74-1.47,12.3-1.47,12.3-13.72-14.83-4.29-59.01.81-67.93,6.26-10.96,15.44,1.85,15.44,1.85l-4.69,1.48s-1.63-2.29-3.64-1.81c-2.01.49-3.51,7.4-3.51,7.4Z"/>
      <path className"cls-4" d="m337.78,104.72s1.41-10.81,9.29-11.08c12.5-.44,15.65,32.41,16.63,50.18.99,17.76-3.92,21.34-3.92,21.34l-.15-10.11s-6.47-43.71-9.67-51.4c-3.51-8.43-6.52-4.26-9.67-.04l-2.82,1.3"/>
    </g>
    <g>
      <g>
        <path className"cls-3" d="m64.57,93.5c-20.21-5.24-36-24.29-40.19-28.89-.37-.4-.78-1.08-1.21-1.98h0c-4.01-8.31-10.48-35.64-11.92-41.83-.1-.42-.17-.74-.22-.96-.05-.2-.07-.3-.07-.3l11.49-5.02s.94,11.02,6.47,19.91c5.54,8.89,10.64,22.99,10.64,22.99,10.82,5.33,22.4,15.22,22.4,15.22,6.04,12.66,2.61,20.86,2.61,20.86Z"/>
        <path className"cls-6" d="m64.57,93.5c-20.21-5.24-36-24.29-40.19-28.89-.37-.4-.78-1.08-1.21-1.98.23.2,15.18,13.02,20.8,16.27,5.66,3.27,12.07,6.18,15.22,3.97,3.15-2.21,4.03-6.42,2.77-10.23,6.04,12.66,2.61,20.86,2.61,20.86Z"/>
        <g>
          <path className"cls-3" d="m11.66,20.12c2.22-.07,9.95-2.06,10.91-2.5.33-.15.47-.64.51-1.2.3-.32,2.26-2.47,2.73-4.16.26-.93-.7-1.71-1.85-2.38.96-1.94,1.14-7.14-1.24-9.06-2.59-2.09-5.08.49-5.08.49-2.97-2.41-4.84.77-4.84.77-1.39-.93-3.9.91-3.9.91-1.28-.68-2.74.68-3.07,1.93-.33,1.25,1.38,11.79,2.32,12.97.94,1.19,3.51,2.22,3.51,2.22Z"/>
          <path className"cls-6" d="m19.08,12.83c1.14,1.62,2.36.54,2.36.54-.4.09-1.01-.45-1.49-.98,0,0-.36-.32-.68-.82t0,0c-.35-.55-.66-1.33-.42-2.17.43-1.52,1.19-1.74,1.19-1.74l-1.13-4.69c-.27,1.71.1,4.59.1,4.59-1.72,1.89-.89,3.82-.31,4.74-.35.36-.88.64-1.54.35-1.32-.59-1.75-2.15-1.75-2.15l-1.5-6.45s.39,7.41,1.82,8.77c1.9,1.81,3.36.02,3.36.02Z"/>
          <path className"cls-6" d="m10.07,6.02s.97,5.44,1.55,6.55c.64,1.21,2.12,1.4,2.91.85s.76-1.26.76-1.26l1.02.86s-1.88,3.1-4.47.89c-1.29-1.11-1.77-7.89-1.77-7.89Z"/>
          <path className"cls-6" d="m11.38,13.24s.08,1.2-.86,1.78c-.93.59-1.62.29-1.95-.31,0,0,.07.89,1.12,1.06,1.37.22,2.34-1.27,2.58-1.78l-.9-.75Z"/>
        </g>
        <path className"cls-6" d="m13.73,20.12s-1.03.82-2.48.67c-.1-.42-.17-.74-.22-.96,0,0,1.19.36,2.7.28Z"/>
        <path className"cls-6" d="m22.84,17.37s-1.21,1.15-2.28,1.47c0,0,1.44.1,2.43-.6l-.15-.86Z"/>
        <path className"cls-6" d="m39.56,57.41s-3.86,3.23-6.04,3.57c0,0,4.41,1.47,8.12-2.49l-2.08-1.07Z"/>
      </g>
      <path className"cls-4" d="m51.89,155.14c.45.66,1.28,1.03,2.16,1.23.67,10.62,2.08,19.63,4.19,23.5,6.5,11.93,48.82,12.72,57.63,2.32,8.81-10.4,6.5-71.31-8.18-79.07-10.96-5.8-32.19-4.24-42.24-3.08-4.21.49-7.71,3.48-8.78,7.58-1.72,6.56-2.69,16.75-2.97,27.49-.59.09-1.22.27-1.81.57-1.98,1.02-1.21,17.66.02,19.45Z"/>
      <path className"cls-3" d="m210.64,96s-3.23,11.98-8.35,25.28c-.77,2.01-1.59,4.05-2.44,6.08-3.48,8.28-7.6,16.45-12.04,22.01-2.37,2.96-4.83,5.19-7.33,6.29,0,0-7.17,1.01-12.21-2.01-5.03-3.02-24.66-12.75-27.05-16.94,0,0,7.55-10.7,14.72-11.66,0,0,2.67,1.38,6.44,3.57,4.06,2.36,9.41,5.66,14.12,9.21.45.34.9.68,1.34,1.03,0,0,.37-.72,1.04-1.97,1.7-3.19,5.33-9.82,9.72-16.83.94-1.5,1.92-3.02,2.91-4.52.22-.33.45-.67.67-1,7.8-11.58,8.81-20.04,8.81-20.04,0,0,7.52-.63,9.66,1.52Z"/>
      <path className"cls-6" d="m202.29,121.28c-.77,2.01-1.59,4.05-2.44,6.08l-11.26-7.32c.94-1.5,1.92-3.02,2.91-4.52l10.79,5.76Z"/>
      <path className"cls-6" d="m187.8,149.38c-2.37,2.96-4.83,5.19-7.33,6.29,0,0-7.17,1.01-12.21-2.01-5.03-3.02-24.66-12.75-27.05-16.94,0,0,7.55-10.7,14.72-11.66,0,0,2.67,1.38,6.44,3.57-.44,1.51-2.18,6.91-5.3,9.53-3.65,3.06,4.78,10.1,12.08,13.25,7.3,3.15,12.38,3.01,18.65-2.02Z"/>
      <path className"cls-6" d="m177.54,146.99c.84-3.44-1.05-9.17-1.05-9.17.45.34.9.68,1.34,1.03,0,0,.37-.72,1.04-1.97.74,7.33-1.32,10.11-1.32,10.11Z"/>
      <path className"cls-11" d="m144.01,325.23c-6.71-3.86-9.06-7.72-13.09-14.43-2.39-3.99-4.61-7.32-6.01-9.37-.97-1.42-1.08-3.26-.29-4.78.06-.12.12-.24.19-.36,1.58-2.98,4.2-7.19,6.46-7.3l2.56,1.39,8.84,4.82s3.86,8.87,3.69,12.74c-.14,3.38,6.38,11.21,8.36,15.61.17.37.3.72.4,1.04.07.23.12.44.14.64.47,3.72-4.53,3.86-11.24,0Z"/>
      <path className"cls-4" d="m144.01,325.23c-6.71-3.86-9.06-7.72-13.09-14.43-2.39-3.99-4.61-7.32-6.01-9.37-.97-1.42-1.08-3.26-.29-4.78.06-.12.12-.24.19-.36.38,1.56,1.44,5.06,3.72,7.72,3.02,3.52,7.45,11.45,8.51,12.96s8.55,7.98,13.26,8.93c3.82.77,4.52-.04,4.81-1.31.07.23.12.44.14.64.47,3.72-4.53,3.86-11.24,0Z"/>
      <path className"cls-1" d="m144.01,325.23c-6.71-3.86-9.06-7.72-13.09-14.43-2.39-3.99-4.61-7.32-6.01-9.37-.97-1.42-1.08-3.26-.29-4.78.06-.12.12-.24.19-.36,1.58-2.98,4.2-7.19,6.46-7.3l2.56,1.39s-5,4.48-3.41,9.43c1.59,4.95,6.94,12.42,9.72,15.69,2.7,3.17,8.67,8.71,14.58,8.05.17.37.3.72.4,1.04.07.23.12.44.14.64.47,3.72-4.53,3.86-11.24,0Z"/>
      <path className"cls-11" d="m141.57,348.08c-.15,4.45-3.32,8.55-10.31,7.35-7.87-1.34-10.08-7.88-11.92-11.91-1.84-4.03-6.21-17.95-8.05-23.49-1-3-.7-6.3-.22-8.7.41-2.02.94-3.4.94-3.4l2.84.43,16.07,2.44s3.02,6.37,3.69,13.59c.57,6.17,4.71,14.19,6.31,19.52h0c.27.91.47,1.73.57,2.45.08.57.11,1.14.08,1.71Z"/>
      <path className"cls-1" d="m141.57,348.08c-.15,4.45-3.32,8.55-10.31,7.35-7.87-1.34-10.08-7.88-11.92-11.91-1.84-4.03-6.21-17.95-8.05-23.49-1-3-.7-6.3-.22-8.7.41-2.02.94-3.4.94-3.4l2.84.43c-.27,2.79.94,10.69,3.16,14.94,2.77,5.28,4.83,16.9,9.65,22.06,4.82,5.16,13.46,6.12,13.28-1.44.27.9.47,1.72.57,2.45.08.57.11,1.14.08,1.71Z"/>
      <path className"cls-4" d="m141.57,348.08c-.15,4.45-3.32,8.55-10.31,7.35-7.87-1.34-10.08-7.88-11.92-11.91-1.84-4.03-6.21-17.95-8.05-23.49-1-3-.7-6.3-.22-8.7.41,2.46,2.52,10.41,4.99,16.74,4.02,10.28,7.24,19.3,10.04,22.32,2.8,3.01,13.86,5.03,15.47-2.32Z"/>
      <path className"cls-10" d="m59.24,91.77l6.3,1.99s-1.07,4.45-2.89,4.45-3.96-.97-3.42-6.44Z"/>
      <g>
        <path className"cls-2" d="m144.01,251.58c1.22,3.05.08,6.24-1.27,11.34,5.38-7.82,14.36-20.23,14.36-20.23l-26.17-8.08s11.74,13.61,13.09,16.97Z"/>
        <path className"cls-4" d="m189.13,232.19c-.32-1.21-.94-2.31-1.75-3.25-2.71-3.12-10.71-11.38-26.76-20.99-20.47-12.25-24.33-11.24-34.56-18.79,0,0-35-3.94-49.37,9.96-.15.14-.29.29-.44.44-1.3,1.33-2.42,2.82-3.31,4.49,0,0,0,18.16,7.17,24.78,7.17,6.62,29.67,30.06,31.85,29.85,0,0,.17,3.64,2.85,3.81,0,0-3.69,14.93-2.18,21.31,0,0-2.35,5.37-1.17,9.23,1.17,3.86-.34,7.72-.34,10.07s2.01,12.75,8.56,14.93c6.54,2.18,13.76-.17,14.26-5.87.5-5.7-.84-9.39-.33-12.58.14-.86.73-3.4,1.55-6.75,2.42,1.51,6.22,2.65,7.51,2.39,1.68-.33,5.2-10.24,7.38-10.9,2.18-.67,9.9-10.24,15.43-15.6,5.31-5.15,27.57-21.68,23.65-36.5Zm-58.21,2.42l26.17,8.07s-8.98,12.41-14.36,20.23c1.35-5.1,2.49-8.29,1.27-11.34-1.34-3.36-13.09-16.97-13.09-16.97Z"/>
        <g>
          <path className"cls-14" d="m77.45,200.65l-.99.17c-.09-.55-.16-.98-.21-1.26.14-.15.29-.29.44-.44l.5-.08s.09.6.26,1.61Z"/>
          <path className"cls-14" d="m77.84,202.88l-.99.18c.2,1.09.41,2.18.62,3.24l.99-.2c-.21-1.05-.42-2.14-.62-3.22Zm1.08,5.45l-.98.21c.24,1.12.49,2.2.73,3.22l.98-.24c-.24-1.01-.49-2.08-.73-3.19Zm1.28,5.39l-.97.26c.3,1.14.61,2.21.91,3.18l.96-.3c-.3-.96-.6-2.01-.9-3.14Zm1.62,5.28l-.95.34c.44,1.21.89,2.25,1.33,3.08l.89-.47c-.42-.79-.84-1.79-1.27-2.96Zm2.47,4.72l-.73.69c.49.52,1.28,1.31,2.33,2.36l.71-.71c-1.05-1.04-1.83-1.82-2.31-2.34Zm3.94,3.93l-.7.72c.73.71,1.52,1.48,2.36,2.3l.7-.72c-.85-.82-1.64-1.58-2.36-2.29Zm4,3.88l-.7.72c.77.74,1.56,1.5,2.38,2.28l.69-.73c-.82-.78-1.61-1.54-2.38-2.28Zm4.03,3.85l-.69.73c.79.75,1.59,1.5,2.39,2.27l.69-.73c-.8-.76-1.6-1.52-2.39-2.27Zm4.05,3.83l-.69.73c.81.75,1.61,1.51,2.41,2.25l.69-.74c-.8-.74-1.6-1.49-2.4-2.25Zm4.07,3.8l-.68.74c.82.77,1.64,1.51,2.42,2.23l.68-.74c-.79-.72-1.6-1.47-2.42-2.23Zm4.1,3.77l-.68.74c.86.78,1.68,1.52,2.45,2.21l.67-.75c-.77-.68-1.59-1.42-2.44-2.2Zm4.15,3.7l-.66.76c1.01.88,1.86,1.6,2.53,2.14l.63-.79c-.66-.53-1.51-1.25-2.51-2.11Zm4.27,3.33l-.41.92c.73.32,1.17,1,1.44,2.28l.99-.21c-.23-1.08-.67-2.4-2.02-2.99Zm2.35,5.29l-1,.12c.11.98.26,2.19.59,3.32l.96-.28c-.31-1.04-.44-2.21-.55-3.15Zm-.29,5.51c-.06.83-.21,1.88-.45,3.2l.99.18c.24-1.36.4-2.44.46-3.31l-1-.08Zm-.88,5.43c-.17.83-.35,1.69-.53,2.55l-.14.66.98.21.14-.66c.18-.87.36-1.73.53-2.56l-.99-.2Zm-1.13,5.45c-.26,1.27-.45,2.3-.61,3.25l.99.17c.16-.94.35-1.96.61-3.22l-.99-.2Zm.05,5.64l-1-.12c-.14,1.12-.21,2.07-.21,2.9,0,.16,0,.31,0,.46l1.01-.04c0-.14,0-.28,0-.42,0-.79.07-1.7.2-2.78Zm-.05,5.47l-1,.04c.02.56.03,1.14.03,1.72,0,.49,0,.99-.02,1.53l1.01.03c.02-.54.02-1.05.02-1.56,0-.6-.01-1.2-.04-1.76Zm-1.09,5.55c-.03.59-.07,1.18-.11,1.76-.03.51-.07,1.02-.09,1.52l1,.06c.03-.5.06-1,.09-1.51.04-.58.07-1.17.11-1.76l-1-.06Zm.73,8.32c-.03-.51-.04-1.04-.04-1.62,0-.36,0-.73.02-1.1l-1.01-.03c-.01.38-.02.75-.02,1.12,0,.6.01,1.15.04,1.68,0,.16.01.32.02.5h1.01c0-.19,0-.38-.02-.55Zm-1.12,2.77c-.1.94-.26,2.03-.48,3.21l.99.18c.22-1.21.39-2.32.49-3.29l-1-.11Zm-.93,5.43c-.22,1.01-.47,2.08-.74,3.19l.98.24c.28-1.11.53-2.2.75-3.22l-.98-.21Z"/>
        </g>
        <g>
          <path className"cls-14" d="m126.96,227.73s1.18.4,3.12,1.05l.32-.95c-1.94-.65-3.12-1.05-3.12-1.05l-.32.96Z"/>
          <path className"cls-14" d="m135.67,229.6c-1.11-.38-2.16-.73-3.11-1.05l-.32.95c.95.32,1.99.67,3.11,1.05l.32-.95Z"/>
          <polygon className"cls-14" points="141.98 269.73 142.8 270.31 144.69 267.63 143.86 267.05 141.98 269.73"/>
          <rect className"cls-14" x="138.5" y="272.71" width="3.28" height="1.01" transform="translate(-163.96 230.67) rotate(-54.88)"/>
          <path className"cls-14" d="m137.04,276.73c.03.56.05,1.12.05,1.67l1.2-1.71-.82-.58-.43.61Z"/>
          <path className"cls-14" d="m140.92,231.38c-1.06-.36-2.1-.71-3.11-1.06l-.32.95c1,.34,2.04.69,3.1,1.06l.33-.95Z"/>
          <path className"cls-14" d="m156.65,236.87c-.96-.35-2-.72-3.09-1.1l-.33.95c1.09.39,2.12.75,3.08,1.1l.34-.95Z"/>
          <path className"cls-14" d="m146.17,233.19c-1.03-.36-2.07-.71-3.1-1.07l-.32.95c1.03.35,2.06.71,3.1,1.07l.33-.95Z"/>
          <path className"cls-14" d="m155.42,252.03l.74.68c.67-.73,1.44-1.59,2.19-2.44l-.75-.66c-.75.85-1.52,1.7-2.19,2.43Z"/>
          <path className"cls-14" d="m159.08,247.89l.77.65c.82-.98,1.49-1.83,2.05-2.61l-.82-.59c-.54.76-1.2,1.59-2,2.54Z"/>
          <path className"cls-14" d="m161.87,238.83c-.73-.3-1.77-.7-3.08-1.19l-.35.95c1.3.48,2.33.87,3.05,1.17l.38-.93Z"/>
          <path className"cls-14" d="m163.89,240.47l-.95.33c.05.14.07.3.07.47,0,.57-.25,1.31-.74,2.22l.88.48c.58-1.07.87-1.96.87-2.7,0-.29-.04-.56-.13-.81Z"/>
          <polygon className"cls-14" points="145.17 265.19 145.99 265.78 147.88 263.1 147.06 262.51 145.17 265.19"/>
          <path className"cls-14" d="m151.71,256.18l.77.65c.57-.67,1.23-1.42,2.16-2.45l-.75-.67c-.93,1.03-1.61,1.79-2.18,2.47Z"/>
          <path className"cls-14" d="m149.97,258.38l-1.6,2.28.82.58,1.6-2.27c.09-.13.18-.26.28-.39l-.81-.6c-.11.14-.2.28-.3.41Z"/>
          <path className"cls-14" d="m147.99,234.88c1.05.36,2.09.72,3.1,1.08l.33-.95c-1.01-.35-2.04-.71-3.1-1.08l-.33.95Z"/>
        </g>
      </g>
      <path className"cls-12" d="m160.62,127.54c-1.17,5.25-6.16,10.04-10.12,13.12h0c-2.84,2.21-5.15,3.54-5.15,3.54l-2.35-2.03-7.3-6.28-3.51,7.23c-3.5,7.23-2.53,25.74-2.94,31-.35,4.6,6.73,15.36,8.15,19.04.21.54.3.92.22,1.12-.59,1.51-18.1,3.77-29.49,0-11.39-3.78-34.45,10.02-35.2,9.76-.75-.25-1.41-33.93-4.94-48.9-3.52-14.97,2.35-54.24,2.35-54.24l-4.74-1.5-2.14-.68c-6.21.34-4.23-6.96-4.23-6.96,0,0,.21,7.38,3.98,5.46,1.69-.86,1.62-5.87,1.02-11.15-.73-6.47-2.25-13.33-2.27-13.44.07.02,1.21.32,3,.83,5.97,1.68,19.18,5.6,24.18,8.57,1.5.89,5.12,3.49,7.93,5.54,2.07,1.51,3.69,2.71,3.69,2.71,9.88,5.44,13.05,5.08,21.1,7.47.35.11.71.21,1.07.31,9.78,2.91,20.98,6.36,25.13,13.36,3.21,5.41,8.62,11.71,11.16,14.56.87.97,1.4,1.55,1.4,1.55Z"/>
      <path className"cls-4" d="m65.61,99.41l-2.14-.68c-6.21.34-4.23-6.96-4.23-6.96,0,0,.21,7.38,3.98,5.46,1.69-.86,1.62-5.87,1.02-11.15-.73-6.47-2.25-13.33-2.27-13.44.07.02,1.21.32,3,.83,1.49,6.03,4.17,19.37.64,25.94Z"/>
      <path className"cls-4" d="m160.62,127.54c-1.17,5.25-6.16,10.04-10.12,13.12h0c-2.84,2.21-5.15,3.54-5.15,3.54l-2.35-2.03c7.98-5.4,13.63-12.19,15.83-16.61.87.97,1.79,1.99,1.79,1.99Z"/>
      <path className"cls-4" d="m121.02,97.54c-1.58,4.2-3.97,7.98-16.28,5-13.86-3.35-6.28-13.95-6.28-13.95,2.07,1.51,2.3,1.69,2.3,1.69,9.88,5.44,10.14,4.28,18.2,6.67.35.11,1.71.48,2.07.59Z"/>
      <path className"cls-1" d="m150.49,140.66c-2.84,2.21-5.15,3.54-5.15,3.54l-9.65-8.31-3.51,7.23c-3.5,7.23-2.53,25.74-2.94,31-6.91-16.44,5.19-46.56,5.19-46.56,3.49,6.79,15.84,12.95,16.05,13.1Z"/>
      <path className"cls-1" d="m137.63,194.28c-.59,1.51-18.1,3.77-29.49,0-11.39-3.78-34.45,10.02-35.2,9.76-.75-.25-1.41-33.93-4.94-48.9-3.52-14.97,2.35-54.24,2.35-54.24l-6.88-2.18c-6.21.34-4.23-6.96-4.23-6.96,0,0,.21,7.38,3.98,5.46,1.69-.86,1.62-5.87,1.02-11.15,0,0,11.99,8.63,18.87,10.64,0,0-1.93,12.33-3.77,28.4-1.85,16.06-.67,27.11,3.02,38.35,3.69,11.24,11.93,22.01,23.37,23.19,11.44,1.17,22.58,9.18,31.69,6.52.21.54.3.92.22,1.12Z"/>
      <g>
        <path className"cls-4" d="m140.79,59.81h0c-.28.28-.47.43-.47.43l-37.66,13.18s-5.63-2.59-5.3-12.43c.24-7.1,4.81-10.35,7.35-11.61-.31-.31-.59-.64-.82-.94-.34-.44-.03-1.08.53-1.1.47-.01.88.01,1.25.06-.11-.47-.17-.95-.2-1.36-.05-.56.56-.93,1.04-.63.77.47,1.29.94,1.65,1.38.02-.02.03-.03.05-.05,3.65-3.68,8.55-5.87,13.72-6.16,2.83-.16,6.28-.41,9.72-.79,6.59-.73,11.72.46,13.65-1.52,0,0,8.12,13.52-4.48,21.55Z"/>
        <path className"cls-4" d="m140.06,57.41s3.85,9.02-2.53,14.39c0,0-.94-10.8,2.53-14.39Z"/>
        <path className"cls-3" d="m117.67,99.18c-.06.05-.13.1-.19.16-.78.61-1.94,1.29-3.67,1.84-3.27,1.04-10.49-2.16-13.63-3.67-.84-.41-1.23-1.39-.9-2.26,1.75-4.66,2.59-9.61,2.59-14.61,0-7.64,3.08-14.65,3.08-14.65-.78,3.6.58,8.81,2.68,14.04,3.45,8.63,8.9,17.34,10.06,19.16Z"/>
        <path className"cls-3" d="m135.04,76.28c.01,1.51-.23,3-.71,4.42-.41,1.22-1,2.39-1.75,3.46l-4.99,7.12c-1.86,2.65-5.19,3.82-8.29,2.9-3.55-1.05-8.15-3.05-11.62-6.85-6.56-7.17-3.62-19.18-3.62-19.18,0,0,3.66-12.02,14.91-14.13,11.25-2.11,20.2,5.84,20.2,5.84l-.93,8.81c-.05.49-.13.98-.24,1.46-.35,1.61-.99,3.15-1.9,4.54l-1.06,1.62Z"/>
        <path className"cls-4" d="m129.03,65.25s-4.31-6.95-9.46-2.92l.39,1.45s4.81-2.46,8.31,2.97l.76-1.5Z"/>
        <path className"cls-6" d="m135.04,76.28c.01,1.51-.23,3-.71,4.42-1-1.17-3.28-2.5-8.38-3.05,0,0,3.18-1.5,5.84-.89.71.16,1.38-.41,1.33-1.14l-.36-4.89s.75-.77,1.96-.83c.74-.04,2.16.05,3.28.22-.35,1.61-.99,3.15-1.9,4.54l-1.06,1.62Z"/>
        <path className"cls-4" d="m138.09,68.7c-1.95-.35-3.62-.18-3.62-.18l-.54,1.43c1.48-.12,2.72.02,3.77.31.52.15,1.04-.14,1.13-.61,0,0,0-.01,0-.02.08-.43-.25-.85-.73-.94Z"/>
        <path className"cls-9" d="m131.04,82.76l-13.18-4.62s-.25,7.67,6.97,9.26c5.67,1.25,6.21-4.64,6.21-4.64Z"/>
        <path className"cls-6" d="m118.56,93.74l-.61,5.18c-.09.08-.19.17-.29.26-.06.05-.13.1-.19.16-1.94-.89-10.06-4.95-10.87-10.92-.51-3.77.23-6.62,1-8.4.61-1.42,1.23-2.16,1.23-2.16,1.62,12.77,9.73,15.88,9.73,15.88Z"/>
        <path className"cls-3" d="m108.03,67.03s-1.34-5.48-5.59-4.22c-4.25,1.26-4.92,12.84.98,12.1,5.9-.74,4.62-7.88,4.62-7.88Z"/>
        <path className"cls-4" d="m120.74,53.76s-2.48.26-2.78,3.4c-.3,3.14-.84,8.49-4.88,8.38-4.05-.11-4.44,4.8-4.44,4.8l-2.89-.7s-.29-8.74,1.64-11.71c1.93-2.98,10.04-7.27,13.36-4.17Z"/>
        <path className"cls-4" d="m120.28,67.57s1.39-1.77,4.16-.96c2.77.81,2.62,3.77,2.62,3.77,0,0-1.55-3.88-6.78-2.81Z"/>
        <path className"cls-4" d="m133.34,72.45s.99-.6,2.13-.16c1.14.44.73,1.94.73,1.94,0,0-.26-1.92-2.86-1.78Z"/>
      </g>
      <g>
        <g>
          <rect className"cls-4" x="169.9" y="82.48" width="54.7" height="36.22" transform="translate(84.24 -89.81) rotate(32.29)"/>
          <polygon className"cls-4" points="230.04 99.89 210.69 130.51 164.45 101.29 166.45 101.15 229.21 96.72 229.77 98.86 229.77 98.86 230.04 99.89"/>
          <path className"cls-9" d="m229.77,98.86l-18.5,29.37c-.63-.4-.35-.22-1.4-.89l-12.67-29.27,32.02-1.35.55,2.14Z"/>
          <rect className"cls-4" x="171.28" y="79.95" width="52.31" height="36.22" transform="translate(82.91 -90.3) rotate(32.29)"/>
        </g>
        <path className"cls-3" d="m214.84,84.52s0,0,0,0c-.44-.8-1.39-1.49-2.05-1.58,0-.69-.67-1.34-1.5-1.7-.48-.21-1.03-.22-1.53-.08-.24-.84-1.14-1.5-1.74-1.32,0,0-.14.03-.39.09-.07-.61-.43-.99-.43-.99h0c-.39-.9-1.9-1.65-2.58-1.44,0,0-5.76,1.03-7.12,5.02-1.36,3.99-3.11,8.6-1.07,8.31.58-.08,1.26-.65,1.93-1.47-.72,2.41-.98,4.28.34,4.09.73-.1,1.61-.97,2.43-2.15-.55,2.06-.65,3.55.54,3.39,1.07-.15,2.45-1.93,3.51-3.92-.68,2.33-.9,4.1.39,3.92,1.58-.22,2.69-3.43,4.27-5.88,1.86-2.87,1.79-1.18,3.8-1.95l1.46.92c.71-1.75-.15-3.14-.23-3.26Z"/>
      </g>
      <path className"cls-4" d="m98.46,88.6s1.6-13.29-3.91-14.37c-10.7-2.1-22.57,13.74-29.01,30.21-9.69,24.79,1.5,43.4,1.5,43.4l.2-9.49s-.88-20.64,8.68-36.96c9.56-16.32,16.23-20.73,17.62-19.59s1.45,4.29,1.45,4.29l3.46,2.52Z"/>
      <path className"cls-4" d="m122.93,98.08s3.2-8.27,13.45-4.59c8.97,3.22,8.04,12.79,6.66,25.37-1.38,12.58-13.57,43.7-13.57,43.7,0,0-.52-10.96.87-17.51,0,0,8.39-27.67,5.37-38.61-3.02-10.95-9.75-7.46-9.75-7.46l-3.02-.91Z"/>
    </g>
  </g>
</svg>