<?xml version="1.0" standalone="no"?>
<!DOCTYPE svg PUBLIC "-//W3C//DTD SVG 20010904//EN"
 "http://www.w3.org/TR/2001/REC-SVG-20010904/DTD/svg10.dtd">
<svg version="1.0" xmlns="http://www.w3.org/2000/svg"
 width="2898.000000pt" height="2772.000000pt" viewBox="0 0 2898.000000 2772.000000"
 preserveAspectRatio="xMidYMid meet">
<metadata>
Created by potrace 1.16, written by Peter Selinger 2001-2019
</metadata>
<g transform="translate(0.000000,2772.000000) scale(0.100000,-0.100000)"
fill="#000000" stroke="none">
<path d="M8718 18688 c-2 -2251 -1 -4109 2 -4128 l5 -35 1408 -3 c1115 -2
1407 -5 1407 -15 0 -6 -25 -55 -56 -107 -31 -52 -125 -214 -209 -360 -84 -146
-178 -310 -210 -365 -32 -55 -91 -157 -132 -227 -40 -71 -107 -188 -150 -260
-42 -73 -91 -158 -108 -188 -17 -30 -67 -116 -110 -190 -85 -147 -175 -303
-323 -560 -107 -185 -119 -206 -257 -445 -54 -93 -147 -253 -205 -355 -224
-387 -260 -450 -578 -1000 -68 -118 -194 -336 -280 -485 -85 -148 -166 -288
-179 -310 l-23 -40 0 -2332 0 -2333 2470 0 2470 0 0 6725 0 6725 1123 0 c1244
0 1492 -8 1849 -61 40 -6 102 -15 138 -20 431 -64 898 -195 1305 -367 209 -88
325 -149 644 -337 42 -25 212 -144 271 -189 265 -206 566 -504 737 -731 169
-224 267 -382 386 -621 164 -329 266 -618 362 -1028 34 -144 89 -513 107 -714
14 -169 14 -771 -1 -947 -20 -238 -61 -531 -91 -660 -87 -368 -103 -423 -183
-645 -33 -90 -70 -183 -104 -260 -15 -36 -140 -284 -164 -330 -78 -143 -248
-396 -349 -521 -163 -201 -397 -439 -555 -564 -27 -22 -52 -42 -55 -45 -6 -6
-133 -100 -210 -156 -30 -22 -86 -59 -125 -83 -38 -25 -86 -54 -105 -66 -244
-153 -602 -317 -935 -426 -115 -38 -362 -111 -415 -122 -743 -160 -1062 -187
-2219 -187 -316 1 -578 -3 -583 -8 -4 -4 -7 -987 -6 -2183 l3 -2174 660 -3
c635 -3 1143 7 1365 28 58 5 173 14 255 20 166 12 290 24 470 47 66 8 152 19
190 23 86 10 271 37 345 50 30 5 100 17 155 25 55 9 145 25 200 35 55 11 125
25 155 31 77 15 213 45 365 81 72 17 146 34 165 38 188 39 733 204 1030 311
63 23 144 52 180 64 139 49 356 139 620 257 135 61 595 292 680 342 25 14 70
40 100 56 112 62 392 235 512 317 43 29 82 53 87 53 5 0 11 4 13 8 2 4 48 39
103 77 158 110 520 389 610 472 11 10 47 40 80 68 132 110 557 528 712 700
197 219 444 533 619 785 87 125 250 376 261 400 4 8 31 56 61 105 80 132 211
375 287 532 36 76 72 149 79 163 8 14 41 90 75 170 34 80 68 159 75 175 62
139 199 523 264 740 12 39 35 115 51 170 87 289 197 806 250 1175 39 269 55
422 83 770 18 223 18 1187 0 1400 -27 329 -54 587 -78 740 -36 236 -62 386
-100 575 -89 437 -208 845 -399 1365 -18 51 -115 278 -170 400 -96 215 -179
379 -328 650 -207 376 -636 982 -912 1286 -5 6 -48 53 -95 105 -108 121 -429
442 -544 544 -49 44 -94 85 -100 90 -6 6 -56 48 -111 94 -55 46 -111 93 -125
105 -14 12 -54 44 -90 71 -36 27 -74 57 -84 67 -55 50 -436 315 -616 428 -63
40 -127 81 -142 91 -15 10 -30 19 -34 19 -3 0 -18 8 -32 19 -15 10 -47 29 -72
43 -25 14 -63 35 -85 48 -345 197 -877 453 -1175 565 -19 8 -60 23 -90 35 -30
12 -111 41 -180 66 -69 25 -143 52 -165 61 -176 67 -750 238 -955 284 -19 4
-100 23 -180 43 -275 66 -691 144 -1040 195 -435 64 -703 90 -1345 133 -107 7
-1403 12 -3917 15 l-3758 4 -2 -4093z"/>
<path d="M4856 15391 c-6 -9 2 -24 136 -256 41 -71 127 -220 190 -330 138
-239 344 -594 357 -615 9 -13 11 -13 24 0 12 13 181 298 260 440 21 39 54 96
147 255 35 60 134 232 170 295 20 36 55 97 77 135 28 48 37 72 29 77 -16 11
-1384 10 -1390 -1z"/>
<path d="M4470 13305 c0 -9 11 -32 24 -53 13 -20 52 -86 86 -147 77 -135 85
-149 147 -255 28 -47 62 -105 75 -130 14 -25 77 -133 139 -240 109 -190 196
-340 313 -545 32 -55 61 -104 65 -110 5 -5 22 -35 38 -65 81 -147 127 -227
144 -252 11 -14 19 -29 19 -32 0 -4 11 -23 24 -44 37 -59 126 -212 126 -217 0
-2 26 -48 58 -102 33 -54 87 -147 122 -208 35 -60 71 -123 80 -140 10 -16 43
-75 75 -130 31 -55 65 -113 75 -130 10 -16 34 -59 55 -95 20 -36 40 -69 44
-75 5 -5 22 -35 38 -65 41 -76 68 -122 123 -215 26 -44 63 -109 84 -145 20
-36 47 -83 60 -105 13 -22 40 -69 61 -105 21 -36 46 -80 56 -97 11 -18 27 -48
38 -65 10 -18 34 -60 53 -93 19 -33 49 -84 66 -113 18 -29 32 -55 32 -58 0
-14 42 -64 50 -59 4 3 24 33 43 68 74 133 92 165 148 260 33 54 59 100 59 103
0 2 20 37 44 77 42 69 58 97 114 197 14 25 35 61 47 80 12 19 33 55 47 80 37
66 62 109 95 166 17 27 41 70 55 95 40 69 63 110 95 165 17 27 42 70 55 95 14
24 52 89 83 144 32 55 69 120 83 145 14 25 35 61 47 80 12 19 33 55 47 80 37
66 62 109 95 166 17 27 41 70 55 95 14 24 51 89 83 144 32 55 66 114 75 130
10 17 47 81 84 144 36 62 66 115 66 116 0 2 17 32 38 66 22 35 50 84 64 109
37 66 61 109 95 166 17 27 41 70 55 95 14 24 51 89 83 144 32 55 69 120 83
145 14 25 35 61 47 80 12 19 33 55 47 80 14 25 34 61 45 80 11 19 37 64 58
100 21 36 46 80 56 98 11 17 27 47 38 65 10 17 32 55 48 83 54 90 83 145 83
154 0 7 -853 10 -2365 10 -2110 0 -2365 -2 -2365 -15z"/>
<path d="M3312 9241 c-10 -6 5 -37 128 -246 28 -49 62 -108 75 -130 37 -66
174 -304 230 -400 52 -89 142 -246 280 -485 40 -69 132 -228 205 -355 74 -126
158 -274 189 -327 31 -54 61 -96 66 -95 9 3 38 52 173 287 56 99 84 146 101
175 10 17 29 50 43 75 14 25 57 99 95 165 79 135 231 398 338 585 40 69 149
258 243 421 94 163 174 303 178 312 6 16 -25 17 -372 18 -1487 6 -1962 6
-1972 0z"/>
</g>
</svg>
